<?xml version="1.0" standalone="no"?>
<!DOCTYPE svg PUBLIC "-//W3C//DTD SVG 20010904//EN"
 "http://www.w3.org/TR/2001/REC-SVG-20010904/DTD/svg10.dtd">
<svg version="1.0" xmlns="http://www.w3.org/2000/svg"
 width="430.000000pt" height="430.000000pt" viewBox="0 0 430.000000 430.000000"
 preserveAspectRatio="xMidYMid meet">
<metadata>
Created by potrace 1.14, written by Peter Selinger 2001-2017
</metadata>
<g transform="translate(0.000000,430.000000) scale(0.100000,-0.100000)"
fill="#000000" stroke="none">
<path d="M1979 4296 c-2 -2 -29 -6 -59 -10 -118 -12 -150 -18 -290 -52 -193
-48 -421 -139 -565 -227 -252 -154 -432 -314 -626 -554 -38 -47 -152 -226
-193 -304 -62 -116 -157 -356 -158 -399 0 -3 -5 -16 -10 -30 -8 -22 -37 -149
-52 -235 -15 -81 -21 -175 -21 -335 0 -184 7 -268 30 -385 25 -124 32 -155 62
-250 232 -758 875 -1331 1658 -1479 203 -38 512 -43 720 -12 95 14 241 48 303
70 23 8 43 15 45 15 1 0 11 3 22 7 466 165 842 456 1101 854 68 104 68 105
115 195 102 198 166 393 213 650 21 112 29 433 14 566 -32 277 -113 541 -240
779 -46 84 -122 207 -155 250 -158 202 -267 314 -423 436 -110 86 -176 128
-336 215 -170 93 -471 190 -659 214 -22 2 -56 7 -75 11 -37 6 -416 15 -421 10z"/>
</g>
</svg>
